<svg width="57" height="57" viewBox="0 0 57 57" fill="none" xmlns="http://www.w3.org/2000/svg">
<path fill-rule="evenodd" clip-rule="evenodd" d="M10.377 5.38477C4.64606 5.38477 0 10.0308 0 15.7617C0 21.4927 4.64606 26.1387 10.377 26.1387C16.1079 26.1387 20.754 21.4927 20.754 15.7617C20.754 10.0308 16.1079 5.38477 10.377 5.38477ZM14.8749 14.0071C14.9577 13.9124 15.0208 13.8021 15.0604 13.6827C15.0999 13.5633 15.1152 13.4372 15.1054 13.3118C15.0955 13.1864 15.0606 13.0643 15.0028 12.9525C14.945 12.8408 14.8655 12.7418 14.7688 12.6612C14.6722 12.5807 14.5604 12.5203 14.4401 12.4836C14.3198 12.4469 14.1934 12.4347 14.0682 12.4475C13.9431 12.4604 13.8218 12.4982 13.7115 12.5587C13.6012 12.6191 13.5041 12.701 13.4259 12.7996L9.36947 17.6664L7.27049 15.5665C7.09257 15.3946 6.85427 15.2995 6.60693 15.3017C6.35958 15.3038 6.12297 15.403 5.94807 15.578C5.77316 15.7529 5.67395 15.9895 5.6718 16.2368C5.66965 16.4842 5.76473 16.7225 5.93657 16.9004L8.76666 19.7305C8.85935 19.8231 8.97033 19.8954 9.09251 19.9428C9.2147 19.9901 9.34541 20.0115 9.47632 20.0056C9.60723 19.9996 9.73547 19.9665 9.85286 19.9082C9.97024 19.85 10.0742 19.7679 10.1581 19.6673L14.8749 14.0071Z" fill="url(#paint0_linear_432_230)"/>
<g filter="url(#filter0_d_432_230)">
<mask id="path-2-inside-1_432_230" fill="white">
<path fill-rule="evenodd" clip-rule="evenodd" d="M10.3789 29.2148V39.1285C10.3789 40.8825 11.0017 42.3823 12.2472 43.6279C13.4927 44.8734 14.9925 45.4962 16.7466 45.4962H32.3121C34.0661 45.4962 35.5659 44.8734 36.8114 43.6279C38.057 42.3823 38.6797 40.8825 38.6797 39.1285V35.4582L47.5901 44.3685C47.8554 44.6486 48.1871 44.7886 48.585 44.7886C48.7619 44.7886 48.9462 44.7518 49.1378 44.6781C49.7127 44.4275 50.0001 43.9927 50.0001 43.3736V19.3179C50.0001 18.6988 49.7127 18.264 49.1378 18.0134C48.9462 17.9397 48.7619 17.9028 48.585 17.9028C48.1871 17.9028 47.8554 18.0429 47.5901 18.3229L38.6797 27.2112V23.563C38.6797 21.8089 38.057 20.3091 36.8114 19.0636C35.5659 17.8181 34.0661 17.1953 32.3121 17.1953H23.2448C22.3653 23.6942 17.0064 28.771 10.3789 29.2148Z"/>
</mask>
<path fill-rule="evenodd" clip-rule="evenodd" d="M10.3789 29.2148V39.1285C10.3789 40.8825 11.0017 42.3823 12.2472 43.6279C13.4927 44.8734 14.9925 45.4962 16.7466 45.4962H32.3121C34.0661 45.4962 35.5659 44.8734 36.8114 43.6279C38.057 42.3823 38.6797 40.8825 38.6797 39.1285V35.4582L47.5901 44.3685C47.8554 44.6486 48.1871 44.7886 48.585 44.7886C48.7619 44.7886 48.9462 44.7518 49.1378 44.6781C49.7127 44.4275 50.0001 43.9927 50.0001 43.3736V19.3179C50.0001 18.6988 49.7127 18.264 49.1378 18.0134C48.9462 17.9397 48.7619 17.9028 48.585 17.9028C48.1871 17.9028 47.8554 18.0429 47.5901 18.3229L38.6797 27.2112V23.563C38.6797 21.8089 38.057 20.3091 36.8114 19.0636C35.5659 17.8181 34.0661 17.1953 32.3121 17.1953H23.2448C22.3653 23.6942 17.0064 28.771 10.3789 29.2148Z" fill="url(#paint1_linear_432_230)"/>
<path d="M10.3789 29.2148L10.2812 27.7551L8.91594 27.8466V29.2148H10.3789ZM12.2472 43.6279L13.2817 42.5934L13.2817 42.5934L12.2472 43.6279ZM36.8114 43.6279L35.777 42.5934L35.777 42.5934L36.8114 43.6279ZM38.6797 35.4582L39.7142 34.4237L37.2168 31.9263V35.4582H38.6797ZM47.5901 44.3685L48.6521 43.3624L48.6385 43.348L48.6246 43.3341L47.5901 44.3685ZM49.1378 44.6781L49.663 46.0435L49.6929 46.032L49.7224 46.0192L49.1378 44.6781ZM49.1378 18.0134L49.7224 16.6723L49.6929 16.6595L49.663 16.6479L49.1378 18.0134ZM47.5901 18.3229L48.6233 19.3587L48.6379 19.3441L48.6521 19.3291L47.5901 18.3229ZM38.6797 27.2112H37.2168V30.7369L39.7129 28.2469L38.6797 27.2112ZM36.8114 19.0636L35.777 20.0981L35.777 20.0981L36.8114 19.0636ZM23.2448 17.1953V15.7323H21.9664L21.795 16.9991L23.2448 17.1953ZM11.8419 39.1285V29.2148H8.91594V39.1285H11.8419ZM13.2817 42.5934C12.3092 41.6209 11.8419 40.4927 11.8419 39.1285H8.91594C8.91594 41.2724 9.69414 43.1437 11.2127 44.6623L13.2817 42.5934ZM16.7466 44.0332C15.3824 44.0332 14.2541 43.5659 13.2817 42.5934L11.2127 44.6623C12.7313 46.1809 14.6027 46.9591 16.7466 46.9591V44.0332ZM32.3121 44.0332H16.7466V46.9591H32.3121V44.0332ZM35.777 42.5934C34.8045 43.5659 33.6763 44.0332 32.3121 44.0332V46.9591C34.456 46.9591 36.3273 46.1809 37.8459 44.6623L35.777 42.5934ZM37.2168 39.1285C37.2168 40.4927 36.7495 41.6209 35.777 42.5934L37.8459 44.6623C39.3645 43.1437 40.1427 41.2724 40.1427 39.1285H37.2168ZM37.2168 35.4582V39.1285H40.1427V35.4582H37.2168ZM48.6246 43.3341L39.7142 34.4237L37.6453 36.4927L46.5556 45.403L48.6246 43.3341ZM48.585 43.3257C48.5716 43.3257 48.5689 43.3245 48.5747 43.3256C48.5809 43.3268 48.5924 43.3298 48.6069 43.3359C48.6214 43.342 48.6339 43.3492 48.6434 43.3559C48.6527 43.3624 48.6554 43.3658 48.6521 43.3624L46.528 45.3747C47.0793 45.9566 47.7997 46.2516 48.585 46.2516V43.3257ZM48.6126 43.3126C48.5871 43.3224 48.5728 43.3257 48.569 43.3264C48.5655 43.3271 48.5714 43.3257 48.585 43.3257V46.2516C48.9679 46.2516 49.3303 46.1715 49.663 46.0435L48.6126 43.3126ZM48.5371 43.3736C48.5371 43.4153 48.5323 43.4275 48.5348 43.4184C48.536 43.4139 48.5387 43.4053 48.5439 43.3939C48.549 43.3824 48.5558 43.3699 48.5641 43.3573C48.5724 43.3447 48.581 43.334 48.5888 43.3255C48.5967 43.3171 48.6025 43.3122 48.6047 43.3104C48.6092 43.3068 48.5961 43.3183 48.5532 43.337L49.7224 46.0192C50.2157 45.8041 50.6762 45.4681 51.0049 44.9708C51.3346 44.4721 51.463 43.9152 51.463 43.3736H48.5371ZM48.5371 19.3179V43.3736H51.463V19.3179H48.5371ZM48.5532 19.3545C48.5961 19.3732 48.6092 19.3847 48.6047 19.3811C48.6025 19.3793 48.5967 19.3744 48.5888 19.366C48.581 19.3574 48.5724 19.3467 48.5641 19.3342C48.5558 19.3216 48.549 19.3091 48.5439 19.2976C48.5387 19.2861 48.536 19.2776 48.5348 19.273C48.5323 19.2639 48.5371 19.2761 48.5371 19.3179H51.463C51.463 18.7762 51.3346 18.2194 51.0049 17.7207C50.6762 17.2233 50.2157 16.8873 49.7224 16.6723L48.5532 19.3545ZM48.585 19.3658C48.5714 19.3658 48.5655 19.3643 48.569 19.365C48.5728 19.3658 48.5871 19.369 48.6126 19.3788L49.663 16.6479C49.3303 16.52 48.9679 16.4399 48.585 16.4399V19.3658ZM48.6521 19.3291C48.6554 19.3256 48.6527 19.329 48.6434 19.3356C48.6339 19.3422 48.6214 19.3495 48.6069 19.3556C48.5924 19.3617 48.5809 19.3646 48.5747 19.3658C48.5689 19.367 48.5716 19.3658 48.585 19.3658V16.4399C47.7997 16.4399 47.0793 16.7349 46.528 17.3168L48.6521 19.3291ZM39.7129 28.2469L48.6233 19.3587L46.5569 17.2872L37.6466 26.1754L39.7129 28.2469ZM37.2168 23.563V27.2112H40.1427V23.563H37.2168ZM35.777 20.0981C36.7495 21.0706 37.2168 22.1988 37.2168 23.563H40.1427C40.1427 21.4191 39.3645 19.5477 37.8459 18.0291L35.777 20.0981ZM32.3121 18.6583C33.6763 18.6583 34.8045 19.1256 35.777 20.0981L37.8459 18.0291C36.3273 16.5105 34.456 15.7323 32.3121 15.7323V18.6583ZM23.2448 18.6583H32.3121V15.7323H23.2448V18.6583ZM21.795 16.9991C21.0082 22.8138 16.2103 27.3581 10.2812 27.7551L10.4767 30.6745C17.8025 30.1839 23.7225 24.5746 24.6945 17.3915L21.795 16.9991Z" fill="url(#paint2_linear_432_230)" mask="url(#path-2-inside-1_432_230)"/>
</g>
<defs>
<filter id="filter0_d_432_230" x="3.37891" y="14.1953" width="53.6211" height="42.3008" filterUnits="userSpaceOnUse" color-interpolation-filters="sRGB">
<feFlood flood-opacity="0" result="BackgroundImageFix"/>
<feColorMatrix in="SourceAlpha" type="matrix" values="0 0 0 0 0 0 0 0 0 0 0 0 0 0 0 0 0 0 127 0" result="hardAlpha"/>
<feOffset dy="4"/>
<feGaussianBlur stdDeviation="3.5"/>
<feComposite in2="hardAlpha" operator="out"/>
<feColorMatrix type="matrix" values="0 0 0 0 1 0 0 0 0 1 0 0 0 0 1 0 0 0 0.22 0"/>
<feBlend mode="normal" in2="BackgroundImageFix" result="effect1_dropShadow_432_230"/>
<feBlend mode="normal" in="SourceGraphic" in2="effect1_dropShadow_432_230" result="shape"/>
</filter>
<linearGradient id="paint0_linear_432_230" x1="10.377" y1="5.38477" x2="10.377" y2="48.8848" gradientUnits="userSpaceOnUse">
<stop stop-color="#FFE27A"/>
<stop offset="1" stop-color="#CC935E" stop-opacity="0.8"/>
</linearGradient>
<linearGradient id="paint1_linear_432_230" x1="30.1895" y1="17.1953" x2="30.1895" y2="45.4962" gradientUnits="userSpaceOnUse">
<stop stop-color="#FFE27A"/>
<stop offset="1" stop-color="#CC935E" stop-opacity="0.8"/>
</linearGradient>
<linearGradient id="paint2_linear_432_230" x1="30.1895" y1="17.1953" x2="30.1895" y2="45.4962" gradientUnits="userSpaceOnUse">
<stop stop-color="#FFE27A"/>
<stop offset="1" stop-color="#CC935E" stop-opacity="0.8"/>
</linearGradient>
</defs>
</svg>
