<svg width="51" height="51" viewBox="0 0 51 51" fill="none" xmlns="http://www.w3.org/2000/svg">
<path fill-rule="evenodd" clip-rule="evenodd" d="M24.6722 0.969929C22.9063 1.24436 21.4135 2.01426 20.1279 3.31365C19.167 4.28491 18.5949 5.1849 18.1851 6.37012C17.7425 7.65037 17.7718 6.9686 17.7718 15.9686V24.0165L19.8345 24.0316C21.3091 24.0424 21.9196 24.0281 21.9758 23.9814C22.0404 23.9278 22.0545 23.4137 22.0545 21.1098C22.0545 19.3651 21.9413 16.7075 21.9758 16.6861C22.0468 16.6424 24.8438 15.9188 28.0787 20.0396C28.111 19.0806 28.1208 21.7165 28.1034 24.1783L28.0747 28.2492L27.9436 28.3351C27.8714 28.3824 27.571 28.4752 27.2759 28.5414C26.7927 28.6498 26.5098 28.6642 24.4259 28.6862C21.7994 28.7139 21.3317 28.6738 20.1709 28.322C19.4572 28.1056 18.384 27.6166 17.9874 27.3271L17.7431 27.1486V25.6526C17.7431 24.3687 17.7307 24.1518 17.656 24.1231C17.517 24.0698 16.5406 24.2557 15.9236 24.453C14.7016 24.8438 13.753 25.4336 12.7987 26.3959C11.8334 27.3692 11.276 28.2711 10.8765 29.5063C10.507 30.6487 10.5 30.7746 10.5 36.3136C10.5 41.721 10.5006 41.7323 10.8219 42.5229C11.1867 43.4208 11.9804 44.2696 12.8645 44.7072C13.6697 45.1059 13.8796 45.1499 15.1356 45.1835L16.2359 45.2131L16.2619 46.4279C16.2858 47.544 16.3002 47.6801 16.4386 48.1027C16.7945 49.1887 17.4924 49.9888 18.5192 50.4878C19.3959 50.9139 19.0172 50.8971 27.2569 50.8762L34.6149 50.8577L35.2185 50.7074C36.5606 50.3731 37.6204 49.8317 38.6044 48.9777C39.8746 47.8755 40.705 46.5 41.1283 44.7973L41.2784 44.1937L41.2975 37.7841C41.3187 30.6464 41.3209 30.6968 40.9359 29.5075C40.5548 28.33 39.9957 27.4022 39.1141 26.4844C37.9263 25.2477 36.4342 24.4566 34.7674 24.1798C34.4622 24.1291 34.1809 24.0626 34.1422 24.0319C34.0875 23.9886 34.0678 22.1788 34.0535 15.891C34.0352 7.86766 34.0341 7.80196 33.9128 7.31707C33.4952 5.64777 32.8542 4.49634 31.684 3.31365C30.6408 2.25926 29.5237 1.58703 28.1684 1.19809C27.0845 0.887093 25.7612 0.800751 24.6722 0.969929ZM24.7398 4.30302C26.0005 4.5843 27.0533 5.41754 27.6346 6.59397C28.123 7.58248 28.1068 7.39847 28.1325 12.2505C28.1497 15.4893 28.1387 16.5427 28.087 16.605C28.0298 16.6739 27.6194 16.6869 25.5397 16.6861C22.7476 16.685 22.5695 16.6663 21.7958 16.2931C20.6244 15.7279 19.8612 14.812 19.5138 13.5542C19.3917 13.1125 19.3867 12.9943 19.3849 10.565C19.3829 7.63876 19.3938 7.54914 19.8756 6.57454C20.7601 4.78503 22.7452 3.85797 24.7398 4.30302ZM17.616 34.5695C19.991 34.8282 22.2154 35.8088 24.0048 37.3861C24.6389 37.945 25.3546 38.7587 25.8329 39.4645C26.1521 39.9354 29.3061 45.1384 29.2442 45.2131C28.0771 45.2131 25.5046 45.1997 21.1564 45.1997H16.2485V42.4231C16.2485 40.3403 16.2657 34.6294 16.3175 34.5776C16.4027 34.4924 16.8815 34.4894 17.616 34.5695Z" fill="url(#paint0_linear_432_287)"/>
<defs>
<linearGradient id="paint0_linear_432_287" x1="25.9025" y1="0.884766" x2="25.9025" y2="60.8848" gradientUnits="userSpaceOnUse">
<stop stop-color="#FFE27A"/>
<stop offset="1" stop-color="#CC935E" stop-opacity="0.8"/>
</linearGradient>
</defs>
</svg>
