<svg width="51" height="51" viewBox="0 0 51 51" fill="none" xmlns="http://www.w3.org/2000/svg">
<path d="M24.4448 47.8298L24.5142 48.2328L24.923 48.2447C24.9722 48.2461 25.024 48.248 25.0773 48.2499C25.2126 48.2546 25.3583 48.2598 25.5 48.2598C37.8582 48.2598 47.875 38.2421 47.875 25.8848C47.875 13.5274 37.8582 3.50977 25.5 3.50977C25.3582 3.50977 25.2125 3.51491 25.0773 3.51968C25.0239 3.52156 24.9722 3.52339 24.923 3.52482L24.5142 3.53669L24.4448 3.93969C23.8521 7.37814 23.4383 15.9249 23.4383 25.8848C23.4383 35.8447 23.8521 44.3914 24.4448 47.8298ZM25.5008 2.94727C38.1684 2.94805 48.4375 13.2172 48.4375 25.8848C48.4375 38.5524 38.1684 48.8215 25.5008 48.8223H25.5C12.8324 48.8223 2.5625 38.5524 2.5625 25.8848C2.5625 13.2172 12.8324 2.94727 25.5 2.94727H25.5007C25.5008 2.94727 25.5008 2.94727 25.5008 2.94727Z" fill="url(#paint0_linear_432_245)" stroke="url(#paint1_linear_432_245)"/>
<defs>
<linearGradient id="paint0_linear_432_245" x1="25.5" y1="2.44727" x2="25.5" y2="49.3223" gradientUnits="userSpaceOnUse">
<stop stop-color="#FFDA7A"/>
<stop offset="1" stop-color="#CC935E" stop-opacity="0.8"/>
</linearGradient>
<linearGradient id="paint1_linear_432_245" x1="25.5" y1="2.44727" x2="25.5" y2="49.3223" gradientUnits="userSpaceOnUse">
<stop stop-color="#FFDA7A"/>
<stop offset="1" stop-color="#CC935E" stop-opacity="0.8"/>
</linearGradient>
</defs>
</svg>
